<svg xmlns="http://www.w3.org/2000/svg" width="1792" height="1792" id="Behance">
  <path d="M1617 408.925h-447.125v108.5H1617v-108.5zm-220.5 372.75q-78.75 0-127.75 45.938-49 45.937-54.25 124.687h357q-15.75-170.625-175-170.625zm14 511.875q55.125 0 106.75-28t66.5-76.125h193.375q-87.5 268.625-373.625 268.625-187.25 0-297.938-115.5-110.687-115.5-110.687-303.625 0-182 114.188-302.313Q1223.25 616.3 1403.5 616.3q120.75 0 210.438 59.5 89.687 59.5 133.874 156.625 44.188 97.125 44.188 217 0 14.875-1.75 41.125H1214.5q0 97.125 50.313 150.063 50.312 52.937 145.687 52.937zM242.375 1249.8h259q179.375 0 179.375-146.125 0-157.5-174.125-157.5h-264.25V1249.8zm0-469.875H488.25q68.25 0 108.063-31.938 39.812-31.937 39.812-99.312 0-126-166.25-126h-227.5v257.25zM0 334.55h519.75q76.125 0 135.625 12.25t110.688 41.563q51.187 29.312 78.75 84.437 27.562 55.125 27.562 134.75 0 158.375-150.5 230.125 99.75 28 150.5 100.625t50.75 178.5q0 65.625-21.438 119.438-21.437 53.812-57.75 90.562-36.312 36.75-86.187 62.125t-105.875 36.75q-56 11.375-117.25 11.375H0V334.55Z" fill="#ffffff" class="color000000 svgShape"></path>
</svg>
